<svg width="1024" height="1024" viewBox="0 0 1024 1024" fill="none" xmlns="http://www.w3.org/2000/svg">
<path d="M296.389 202.16H425.535C441.991 202.16 456.865 206.903 470.156 216.39C483.447 225.877 492.625 238.42 497.688 254.021L531.874 356.5L531.877 356.51L531.886 356.511C555.939 361.149 575.666 372.745 591.068 391.298C606.47 409.851 614.172 431.145 614.172 455.179C614.172 473.732 609.529 490.808 600.246 506.409C590.963 522.01 578.304 534.027 562.269 542.46L562.261 542.465L562.26 542.474C559.729 561.447 551.395 576.942 537.26 588.958C523.124 600.975 506.563 606.983 487.575 606.983C471.541 606.983 457.09 602.345 444.22 593.07C431.351 583.794 422.174 571.566 416.688 556.387L416.683 556.375H305.24L305.236 556.387C299.751 571.566 290.573 583.794 277.704 593.07C264.834 602.345 250.382 606.983 234.348 606.983C215.36 606.983 198.799 600.975 184.664 588.958C170.529 576.942 162.196 561.447 159.664 542.474L159.663 542.465L159.655 542.46L158.161 541.659C142.832 533.273 130.671 521.523 121.677 506.409C112.394 490.808 107.753 473.732 107.753 455.179C107.753 432.831 114.187 412.908 127.057 395.409C139.927 377.911 157.123 365.788 178.644 359.041L178.671 359.032L178.651 359.013L133.07 313.466L133.058 313.454L133.046 313.466L125.449 321.058C120.81 325.693 114.906 328.011 107.735 328.011C100.565 328.011 94.6602 325.693 90.0212 321.058C85.3823 316.422 83.0632 310.522 83.0632 303.357C83.0633 296.192 85.3824 290.292 90.0212 285.656L140.667 235.05C145.306 230.415 151.21 228.096 158.381 228.096C165.551 228.096 171.456 230.415 176.094 235.05C180.733 239.685 183.053 245.585 183.053 252.75C183.053 259.915 180.733 265.815 176.094 270.45L168.498 278.041L168.485 278.054L168.498 278.066L203.949 313.49L203.969 313.51L203.977 313.484L224.236 254.021C229.299 238.42 238.477 225.877 251.768 216.39C265.06 206.903 279.933 202.16 296.389 202.16ZM234.348 505.769C227.169 505.769 221.151 508.195 216.294 513.048C211.437 517.901 209.009 523.916 209.009 531.089C209.009 538.263 211.437 544.277 216.294 549.13C221.151 553.983 227.169 556.41 234.348 556.41C241.527 556.41 247.546 553.983 252.403 549.13C257.26 544.277 259.688 538.263 259.688 531.089C259.688 523.916 257.26 517.901 252.403 513.048C247.546 508.195 241.527 505.769 234.348 505.769ZM487.575 505.769C480.396 505.769 474.377 508.195 469.52 513.048C464.663 517.901 462.235 523.916 462.235 531.089C462.235 538.263 464.664 544.277 469.52 549.13C474.377 553.983 480.396 556.41 487.575 556.41C494.754 556.41 500.773 553.983 505.63 549.13C510.487 544.277 512.915 538.263 512.915 531.089C512.915 523.916 510.486 517.901 505.63 513.048C500.773 508.195 494.754 505.769 487.575 505.769ZM209.026 404.554C195.094 404.554 183.167 409.511 173.246 419.425C163.325 429.339 158.363 441.257 158.363 455.179C158.363 461.085 159.524 466.886 161.846 472.581C164.168 478.276 167.23 483.444 171.029 488.084L171.043 488.101L171.055 488.083C178.651 477.964 187.934 469.953 198.905 464.05C209.876 458.147 221.69 455.196 234.348 455.196C250.383 455.196 264.834 459.834 277.704 469.11C290.573 478.385 299.751 490.612 305.236 505.791L305.24 505.803H416.683L416.688 505.791C422.174 490.612 431.351 478.385 444.22 469.11C457.09 459.834 471.541 455.196 487.575 455.196C500.233 455.196 512.048 458.147 523.018 464.05C533.989 469.953 543.273 477.964 550.868 488.083L550.882 488.101L550.895 488.084C554.695 483.444 557.755 478.276 560.077 472.581C562.399 466.886 563.56 461.085 563.56 455.179C563.56 441.257 558.6 429.339 548.678 419.425C538.757 409.511 526.83 404.554 512.898 404.554H209.026ZM296.389 252.733C290.899 252.733 286.042 254.315 281.818 257.481C277.595 260.646 274.427 264.971 272.316 270.456V270.457L244.462 353.959L244.454 353.982H335.656V252.733H296.389ZM386.267 353.982H477.469L477.463 353.959L449.607 270.457V270.456L449.406 269.946C447.297 264.702 444.197 260.547 440.105 257.481C435.882 254.316 431.025 252.733 425.535 252.733H386.267V353.982Z" fill="url(#paint0_linear_113_2)" stroke="url(#paint1_linear_113_2)" stroke-width="0.0342652"/>
<path d="M794.162 471.411C753.256 471.411 718.609 457.2 690.219 428.777C661.829 400.355 647.634 365.668 647.634 324.715C647.634 283.761 661.829 249.074 690.219 220.651C718.609 192.229 753.256 178.017 794.162 178.017C835.068 178.017 869.717 192.229 898.106 220.651C926.496 249.074 940.69 283.761 940.69 324.715C940.69 365.668 926.496 400.355 898.106 428.777C869.717 457.2 835.068 471.411 794.162 471.411ZM794.162 434.767C824.697 434.767 850.653 424.068 872.027 402.669C893.402 381.27 904.089 355.284 904.089 324.715C904.089 294.145 893.402 268.16 872.027 246.76C850.653 225.361 824.697 214.661 794.162 214.661C763.628 214.661 737.672 225.362 716.298 246.76C694.924 268.159 684.236 294.145 684.236 324.715C684.236 355.284 694.923 381.27 716.298 402.669C737.672 424.068 763.628 434.767 794.162 434.767Z" fill="url(#paint2_linear_113_2)" stroke="url(#paint3_linear_113_2)" stroke-width="0.0342652"/>
<path d="M590.046 359.072L633.689 332.143M625.332 421.286L657.832 400.857M640.189 484.429L686.617 451" stroke="url(#paint4_linear_113_2)" stroke-width="6.85303" stroke-linecap="round" stroke-linejoin="round"/>
<path d="M372.949 675.945L405.762 872H370.352L349.297 747.996L308.281 872H275.469L233.496 747.996L212.578 872H176.074L209.844 675.945H246.211L291.875 812.801L337.402 675.945H372.949ZM638.238 675.945L671.051 872H635.641L614.586 747.996L573.57 872H540.758L498.785 747.996L477.867 872H441.363L475.133 675.945H511.5L557.164 812.801L602.691 675.945H638.238ZM766.535 872C740.285 872 720.324 858.374 706.652 831.121L737.141 812.938C746.073 829.708 756.19 838.094 767.492 838.094C773.417 838.094 778.612 836.362 783.078 832.898C787.089 829.161 789.094 825.105 789.094 820.73C789.094 816.447 787.681 812.117 784.855 807.742C783.033 805.646 780.389 803.048 776.926 799.949C773.462 796.759 769.133 792.977 763.938 788.602C754.003 780.307 745.754 773.016 739.191 766.727C732.72 760.346 727.98 754.923 724.973 750.457C718.592 741.342 715.402 732.41 715.402 723.66C715.402 710.535 720.324 699.279 730.168 689.891C740.376 680.594 752.499 675.945 766.535 675.945C776.197 675.945 785.174 678.27 793.469 682.918C797.753 685.014 802.173 688.022 806.73 691.941C811.288 695.861 816.118 700.646 821.223 706.297L794.289 729.676C785.266 717.007 776.014 710.672 766.535 710.672C761.249 710.672 757.512 711.811 755.324 714.09C752.408 716.368 750.949 719.285 750.949 722.84C750.949 725.574 751.815 728.4 753.547 731.316C755.279 733.139 758.286 736.01 762.57 739.93C766.945 743.758 772.642 748.725 779.66 754.832C787.863 761.668 794.107 767.091 798.391 771.102C801.216 773.654 803.312 775.477 804.68 776.57C817.44 788.875 823.82 803.003 823.82 818.953C823.82 834.63 818.579 847.391 808.098 857.234C797.707 867.078 783.853 872 766.535 872Z" fill="url(#paint5_linear_113_2)"/>
<defs>
<linearGradient id="paint0_linear_113_2" x1="83.0457" y1="202.143" x2="473.427" y2="714.294" gradientUnits="userSpaceOnUse">
<stop stop-color="#40B3F3"/>
<stop offset="1" stop-color="#203C86"/>
</linearGradient>
<linearGradient id="paint1_linear_113_2" x1="83.0457" y1="202.143" x2="473.427" y2="714.294" gradientUnits="userSpaceOnUse">
<stop stop-color="#40B3F3"/>
<stop offset="1" stop-color="#203C86"/>
</linearGradient>
<linearGradient id="paint2_linear_113_2" x1="940.708" y1="471.428" x2="647.28" y2="178.338" gradientUnits="userSpaceOnUse">
<stop stop-color="#40B3F3"/>
<stop offset="1" stop-color="#203C86"/>
</linearGradient>
<linearGradient id="paint3_linear_113_2" x1="940.708" y1="471.428" x2="647.28" y2="178.338" gradientUnits="userSpaceOnUse">
<stop stop-color="#40B3F3"/>
<stop offset="1" stop-color="#203C86"/>
</linearGradient>
<linearGradient id="paint4_linear_113_2" x1="590.046" y1="332.143" x2="727.794" y2="419.496" gradientUnits="userSpaceOnUse">
<stop stop-color="#40B3F3"/>
<stop offset="1" stop-color="#203C86"/>
</linearGradient>
<linearGradient id="paint5_linear_113_2" x1="176" y1="607" x2="427.196" y2="1130.46" gradientUnits="userSpaceOnUse">
<stop stop-color="#40B3F3"/>
<stop offset="1" stop-color="#203C86"/>
</linearGradient>
</defs>
</svg>
