<svg width="1024" height="1024" viewBox="0 0 1024 1024" fill="none" xmlns="http://www.w3.org/2000/svg">
<rect width="1024" height="1024" rx="200" fill="white"/>
<path d="M296.389 202.16H425.535C441.477 202.16 455.933 206.612 468.905 215.515L470.156 216.39C483.032 225.58 492.047 237.639 497.201 252.567L497.688 254.021L531.874 356.5L531.877 356.51L531.886 356.511C555.939 361.149 575.666 372.745 591.068 391.298C606.47 409.851 614.172 431.145 614.172 455.179C614.172 473.152 609.815 489.74 601.103 504.943L600.246 506.409C590.963 522.011 578.304 534.028 562.269 542.461L562.261 542.465L562.26 542.474C559.729 561.447 551.395 576.942 537.26 588.958C523.124 600.975 506.563 606.983 487.575 606.983C472.042 606.983 457.994 602.63 445.431 593.925L444.22 593.07C431.351 583.794 422.174 571.566 416.688 556.387L416.683 556.375H305.24L305.236 556.387C299.922 571.092 291.143 583.026 278.899 592.191L277.704 593.07C264.834 602.345 250.383 606.983 234.348 606.983C215.36 606.983 198.799 600.975 184.664 588.958C170.529 576.942 162.196 561.447 159.664 542.474L159.663 542.465L159.655 542.461L158.161 541.659C143.326 533.543 131.458 522.278 122.557 507.862L121.677 506.409C112.394 490.808 107.753 473.732 107.753 455.179C107.753 432.831 114.187 412.908 127.057 395.409C139.927 377.911 157.123 365.788 178.644 359.041L178.671 359.032L178.651 359.013L133.07 313.466L133.058 313.454L133.046 313.466L125.449 321.058C120.81 325.693 114.906 328.011 107.735 328.011C100.789 328.011 95.0303 325.836 90.4597 321.486L90.0212 321.058C85.3823 316.422 83.0632 310.522 83.0632 303.357C83.0633 296.415 85.24 290.662 89.5935 286.095L90.0212 285.656L140.667 235.05C145.306 230.415 151.21 228.096 158.381 228.096C165.327 228.096 171.085 230.271 175.656 234.621L176.094 235.05C180.733 239.685 183.053 245.585 183.053 252.75C183.053 259.691 180.876 265.445 176.522 270.012L176.094 270.45L168.498 278.041L168.485 278.054L168.498 278.066L203.949 313.49L203.969 313.51L203.977 313.484L224.236 254.021C229.141 238.908 237.907 226.664 250.534 217.288L251.768 216.39C265.06 206.903 279.933 202.16 296.389 202.16ZM234.348 505.769C227.394 505.769 221.528 508.046 216.753 512.601L216.294 513.048C211.437 517.901 209.009 523.916 209.009 531.089C209.009 538.039 211.287 543.9 215.845 548.672L216.294 549.13C221.151 553.983 227.169 556.41 234.348 556.41C241.303 556.41 247.169 554.133 251.944 549.578L252.403 549.13C257.26 544.277 259.688 538.263 259.688 531.089C259.688 524.14 257.409 518.279 252.851 513.507L252.403 513.048C247.546 508.195 241.527 505.769 234.348 505.769ZM487.575 505.769C480.396 505.769 474.377 508.195 469.52 513.048C464.663 517.901 462.235 523.916 462.235 531.089C462.235 538.263 464.664 544.277 469.52 549.13C474.377 553.983 480.396 556.41 487.575 556.41C494.53 556.41 500.395 554.133 505.171 549.578L505.63 549.13C510.487 544.277 512.915 538.263 512.915 531.089C512.915 524.14 510.636 518.279 506.078 513.507L505.63 513.048C500.773 508.195 494.754 505.769 487.575 505.769ZM209.026 404.554C195.529 404.554 183.914 409.206 174.181 418.51L173.246 419.425C163.325 429.339 158.363 441.257 158.363 455.179C158.363 460.716 159.384 466.16 161.425 471.512L161.846 472.581C164.168 478.276 167.23 483.444 171.029 488.084L171.043 488.101L171.055 488.083C178.413 478.28 187.356 470.456 197.882 464.61L198.905 464.05C209.876 458.147 221.69 455.196 234.348 455.196C249.882 455.196 263.93 459.548 276.493 468.253L277.704 469.11C290.573 478.385 299.751 490.612 305.236 505.791L305.24 505.803H416.683L416.688 505.791C422.002 491.087 430.781 479.152 443.024 469.988L444.22 469.11C457.09 459.834 471.541 455.196 487.575 455.196C499.838 455.196 511.309 457.965 521.988 463.505L523.018 464.05C533.989 469.953 543.273 477.964 550.868 488.083L550.882 488.101L550.895 488.084C554.457 483.734 557.37 478.92 559.634 473.643L560.077 472.581C562.399 466.886 563.56 461.085 563.56 455.179C563.56 441.692 558.904 430.086 549.594 420.361L548.678 419.425C538.757 409.511 526.83 404.554 512.898 404.554H209.026ZM296.389 252.733C291.071 252.733 286.346 254.218 282.217 257.189L281.818 257.481C277.727 260.547 274.627 264.702 272.517 269.946L272.316 270.456V270.457L244.462 353.959L244.454 353.982H335.656V252.733H296.389ZM386.267 353.982H477.469L477.463 353.959L449.607 270.457V270.456L449.406 269.946C447.365 264.871 444.396 260.816 440.499 257.781L440.105 257.481C435.882 254.316 431.025 252.733 425.535 252.733H386.267V353.982Z" fill="url(#paint0_linear_17_3)" stroke="url(#paint1_linear_17_3)" stroke-width="0.0342652"/>
<path d="M794.162 471.411C753.895 471.411 719.693 457.64 691.555 430.099L690.219 428.777C661.829 400.355 647.634 365.668 647.634 324.715C647.634 284.401 661.389 250.159 688.898 221.988L690.219 220.651C718.609 192.229 753.256 178.017 794.162 178.017C834.429 178.017 868.632 191.788 896.771 219.329L898.106 220.651C926.496 249.074 940.69 283.761 940.69 324.715C940.69 365.028 926.936 399.269 899.427 427.44L898.106 428.777C869.717 457.2 835.068 471.411 794.162 471.411ZM794.162 434.767C824.22 434.767 849.84 424.399 871.021 403.664L872.027 402.669C893.402 381.27 904.089 355.284 904.089 324.715C904.089 294.622 893.733 268.972 873.022 247.766L872.027 246.76C850.653 225.361 824.697 214.661 794.162 214.661C764.105 214.661 738.485 225.029 717.304 245.764L716.298 246.76C694.924 268.16 684.236 294.145 684.236 324.715C684.236 354.807 694.592 380.456 715.304 401.662L716.298 402.669C737.672 424.068 763.628 434.767 794.162 434.767Z" fill="url(#paint2_linear_17_3)" stroke="url(#paint3_linear_17_3)" stroke-width="0.0342652"/>
<path d="M590.046 359.072L633.689 332.143M625.331 421.286L657.831 400.857M640.189 484.429L686.617 451" stroke="url(#paint4_linear_17_3)" stroke-width="6.85303" stroke-linecap="round" stroke-linejoin="round"/>
<path d="M372.949 675.945L405.762 872H370.352L349.297 747.996L308.281 872H275.469L233.496 747.996L212.578 872H176.074L209.844 675.945H246.211L291.875 812.801L337.402 675.945H372.949ZM638.238 675.945L671.051 872H635.641L614.586 747.996L573.57 872H540.758L498.785 747.996L477.867 872H441.363L475.133 675.945H511.5L557.164 812.801L602.691 675.945H638.238ZM766.535 872C740.285 872 720.324 858.374 706.652 831.121L737.141 812.938C746.073 829.708 756.19 838.094 767.492 838.094C773.417 838.094 778.612 836.362 783.078 832.898C787.089 829.161 789.094 825.105 789.094 820.73C789.094 816.447 787.681 812.117 784.855 807.742C783.033 805.646 780.389 803.048 776.926 799.949C773.462 796.759 769.133 792.977 763.938 788.602C754.003 780.307 745.754 773.016 739.191 766.727C732.72 760.346 727.98 754.923 724.973 750.457C718.592 741.342 715.402 732.41 715.402 723.66C715.402 710.535 720.324 699.279 730.168 689.891C740.376 680.594 752.499 675.945 766.535 675.945C776.197 675.945 785.174 678.27 793.469 682.918C797.753 685.014 802.173 688.022 806.73 691.941C811.288 695.861 816.118 700.646 821.223 706.297L794.289 729.676C785.266 717.007 776.014 710.672 766.535 710.672C761.249 710.672 757.512 711.811 755.324 714.09C752.408 716.368 750.949 719.285 750.949 722.84C750.949 725.574 751.815 728.4 753.547 731.316C755.279 733.139 758.286 736.01 762.57 739.93C766.945 743.758 772.642 748.725 779.66 754.832C787.863 761.668 794.107 767.091 798.391 771.102C801.216 773.654 803.312 775.477 804.68 776.57C817.44 788.875 823.82 803.003 823.82 818.953C823.82 834.63 818.579 847.391 808.098 857.234C797.707 867.078 783.853 872 766.535 872Z" fill="url(#paint5_linear_17_3)"/>
<defs>
<linearGradient id="paint0_linear_17_3" x1="83.0457" y1="202.143" x2="473.427" y2="714.294" gradientUnits="userSpaceOnUse">
<stop stop-color="#40B3F3"/>
<stop offset="1" stop-color="#203C86"/>
</linearGradient>
<linearGradient id="paint1_linear_17_3" x1="83.0457" y1="202.143" x2="473.427" y2="714.294" gradientUnits="userSpaceOnUse">
<stop stop-color="#40B3F3"/>
<stop offset="1" stop-color="#203C86"/>
</linearGradient>
<linearGradient id="paint2_linear_17_3" x1="940.708" y1="471.428" x2="647.28" y2="178.338" gradientUnits="userSpaceOnUse">
<stop stop-color="#40B3F3"/>
<stop offset="1" stop-color="#203C86"/>
</linearGradient>
<linearGradient id="paint3_linear_17_3" x1="940.708" y1="471.428" x2="647.28" y2="178.338" gradientUnits="userSpaceOnUse">
<stop stop-color="#40B3F3"/>
<stop offset="1" stop-color="#203C86"/>
</linearGradient>
<linearGradient id="paint4_linear_17_3" x1="590.046" y1="332.143" x2="727.794" y2="419.496" gradientUnits="userSpaceOnUse">
<stop stop-color="#40B3F3"/>
<stop offset="1" stop-color="#203C86"/>
</linearGradient>
<linearGradient id="paint5_linear_17_3" x1="176" y1="607" x2="427.196" y2="1130.46" gradientUnits="userSpaceOnUse">
<stop stop-color="#40B3F3"/>
<stop offset="1" stop-color="#203C86"/>
</linearGradient>
</defs>
</svg>
